<?xml version="1.0" encoding="utf-8"?>
<!-- Svg Vector Icons : http://www.onlinewebfonts.com/icon -->
<!DOCTYPE svg PUBLIC "-//W3C//DTD SVG 1.1//EN" "http://www.w3.org/Graphics/SVG/1.1/DTD/svg11.dtd">
<svg version="1.1" xmlns="http://www.w3.org/2000/svg" xmlns:xlink="http://www.w3.org/1999/xlink" x="0px" y="0px" viewBox="0 0 1000 1000" enable-background="new 0 0 1000 1000" xml:space="preserve">
<metadata> Svg Vector Icons : http://www.onlinewebfonts.com/icon </metadata>
<g><path d="M500,989c-130.4,0-252.6-48.9-346.4-142.6c-191.5-191.5-191.5-501.2,0-692.7C247.4,59.9,369.6,11,500,11c130.4,0,252.6,48.9,346.4,142.6c191.5,191.5,191.5,501.2,0,692.7C752.6,940.1,630.4,989,500,989z M500,92.5c-110,0-211.9,40.7-289.3,118.2c-158.9,158.9-158.9,419.7,0,578.6C288.1,866.7,390,907.5,500,907.5c110,0,211.9-40.7,289.3-118.2c158.9-158.9,158.9-415.6,0-574.6C711.9,133.3,610,92.5,500,92.5z"/><path d="M703.7,540.7H296.3c-24.4,0-40.7-16.3-40.7-40.7c0-24.4,16.3-40.7,40.7-40.7h407.5c24.4,0,40.7,16.3,40.7,40.7C744.5,524.4,728.2,540.7,703.7,540.7z"/></g>
</svg>