<?xml version="1.0" encoding="utf-8"?>
<!-- Svg Vector Icons : http://www.onlinewebfonts.com/icon -->
<!DOCTYPE svg PUBLIC "-//W3C//DTD SVG 1.1//EN" "http://www.w3.org/Graphics/SVG/1.1/DTD/svg11.dtd">
<svg version="1.1" xmlns="http://www.w3.org/2000/svg" xmlns:xlink="http://www.w3.org/1999/xlink" x="0px" y="0px" viewBox="0 0 1000 1000" enable-background="new 0 0 1000 1000" xml:space="preserve">
<metadata> Svg Vector Icons : http://www.onlinewebfonts.com/icon </metadata>
<g><path d="M500,990C229.4,990,10,770.6,10,500C10,229.4,229.4,10,500,10c270.6,0,490,219.4,490,490C990,770.6,770.6,990,500,990z M500,75.3C265.5,75.3,75.3,265.5,75.3,500c0,234.5,190.1,424.7,424.7,424.7c234.5,0,424.7-190.1,424.7-424.7C924.7,265.5,734.5,75.3,500,75.3z M532.7,728.7h-65.3v-196h-196v-65.3h196v-196h65.3v196h196v65.3h-196V728.7z"/></g>
</svg>